<svg width="463" height="98" viewBox="0 0 463 98" fill="none" xmlns="http://www.w3.org/2000/svg">
<rect width="219" height="98" rx="18" fill="#070303"/>
<path d="M63.7812 88L21.0312 88.9844L15.6875 13.0469L43.1094 11.3594L34.8125 79.7031L64.3438 76.1875L63.7812 88ZM66.5938 88L88.1094 11.3594L115.953 13.0469L130.859 88L120.594 89.6875L112.578 70.5625L81.9219 73.0938L77.9844 89.6875L66.5938 88ZM93.1719 25.8438L84.0312 64.2344L110.047 64.5156L94.0156 25.8438H93.1719ZM147.875 15.4375C159.219 11.9688 169.859 10.2344 179.797 10.2344C189.734 10.2344 197.656 12.0625 203.562 15.7188C204.875 19.6562 205.531 23.4062 205.531 26.9688C205.531 35.0312 202.062 41.6406 195.125 46.7969C199.438 50.1719 202.859 54.0156 205.391 58.3281C207.922 62.6406 209.188 66.625 209.188 70.2812C209.188 76.375 206.375 81.3906 200.75 85.3281C195.219 89.1719 186.5 91.0938 174.594 91.0938C167.844 91.0938 161.141 90.5781 154.484 89.5469L147.875 15.4375ZM166.719 81.1094C170.938 82.2344 174.969 82.7969 178.812 82.7969C182.75 82.7969 185.281 82.5625 186.406 82.0938C189.125 76.6562 190.484 71.2188 190.484 65.7812C190.484 60.3438 189.219 55.6562 186.688 51.7188C182.094 53.7812 176.328 55.6562 169.391 57.3438L166.719 81.1094ZM170.094 50.5938C175.25 48.5312 179.328 45.6719 182.328 42.0156C185.328 38.3594 186.828 35.0312 186.828 32.0312C186.828 28.9375 186.266 26.125 185.141 23.5938C184.109 20.9688 182.656 19 180.781 17.6875C179 17.6875 176.562 18.1562 173.469 19.0938L170.094 50.5938Z" fill="#F95D5D"/>
<path d="M305.938 89.6875L289.484 28.5156H288.5L275.984 88L265.578 89.6875L240.688 33.0156H239.984L238.016 88L226.625 88.5625L231.969 13.0469L259.812 11.9219L271.484 66.9062L284.984 11.3594L312.828 13.0469L316.344 88L305.938 89.6875ZM328.859 88L350.375 11.3594L378.219 13.0469L393.125 88L382.859 89.6875L374.844 70.5625L344.188 73.0938L340.25 89.6875L328.859 88ZM355.438 25.8438L346.297 64.2344L372.312 64.5156L356.281 25.8438H355.438ZM403.531 12.9062L462.312 11.3594L462.031 19.0938L445.859 20.7812L438.688 88.4219L426.172 89.5469L420.266 23.3125L404.234 24.8594L403.531 12.9062Z" fill="black"/>
</svg>
