<svg width="603" height="118" viewBox="0 0 603 118" fill="none" xmlns="http://www.w3.org/2000/svg">
<path d="M62.5172 76.3448C62.5172 76.3448 60.8103 76.3448 57.3966 76.3448C53.1552 76.3448 51.0345 74.8966 51.0345 72V67.3448C51.0345 64.4483 53.1552 63 57.3966 63H62.5172C66.4483 63 68.5172 64.3966 68.7241 67.1897V72C68.7241 74.8966 66.6552 76.3448 62.5172 76.3448ZM98.2069 103.034L100.845 100.707C112.328 89.3276 118.069 75.5172 118.069 59.2759C118.069 43.1379 112.328 29.3276 100.845 17.8448C89.3621 6.36207 75.5517 0.620689 59.4138 0.620689C43.2759 0.620689 29.4655 6.36207 17.9828 17.8448C6.5 29.3276 0.758621 43.1379 0.758621 59.2759C0.758621 75.4138 6.5 89.2241 17.9828 100.707C29.4655 112.19 43.2759 117.931 59.4138 117.931C71.4138 117.931 82.1207 114.776 91.5345 108.466L81.9138 97.1379C75.1897 101.276 67.5862 103.345 59.1035 103.345C46.8966 103.345 36.5 99.0517 27.9138 90.4655C19.3276 81.8793 15.0345 71.4828 15.0345 59.2759C15.0345 47.069 19.3276 36.6724 27.9138 28.0862C36.5 19.5 46.8966 15.2069 59.1035 15.2069C71.3103 15.2069 81.7069 19.5 90.2931 28.0862C98.8793 36.6724 103.172 47.069 103.172 59.2759C103.172 71.4828 98.8793 81.8793 90.2931 90.4655L101.31 90L83.6207 77.2759V47.9483C83.6207 44.431 81.8103 41.6379 78.1897 39.569C74.6724 37.5 70.431 36.4655 65.4655 36.4655H54.9138C49.9483 36.4655 45.6552 37.5 42.0345 39.569C38.5172 41.6379 36.7586 44.431 36.7586 47.9483V51.0517H51.6552V49.5C51.6552 46.6034 53.7759 45.1552 58.0172 45.1552H62.5172C66.6552 45.1552 68.7241 46.6034 68.7241 49.5V56.0172C66.9655 54.8793 64.6897 54.3103 61.8965 54.3103H54.4483C49.3793 54.3103 45.0345 55.3966 41.4138 57.569C37.8966 59.6379 36.1379 62.3793 36.1379 65.7931V73.5517C36.1379 75.3103 36.6552 76.9138 37.6897 78.3621C40.8966 82.8103 46.4828 85.0345 54.4483 85.0345H61.1207C63.9138 85.0345 66.4483 84.569 68.7241 83.6379L98.2069 103.034ZM184.32 81H139.786V15.9828H154.682V72.3103H184.32V81ZM194.893 81V15.9828H239.428V24.6724H209.79V42.0517H233.066V50.7414H209.79V81H194.893ZM278.878 72.3103C283.016 72.3103 285.085 70.8621 285.085 67.9655V29.0172C285.085 26.1207 283.016 24.6724 278.878 24.6724H272.05C267.809 24.6724 265.688 26.1207 265.688 29.0172V67.9655C265.688 70.8621 267.809 72.3103 272.05 72.3103H278.878ZM250.792 27.6207C250.792 24.1034 252.55 21.3103 256.068 19.2414C259.688 17.069 264.033 15.9828 269.102 15.9828H281.826C289.792 15.9828 295.378 18.2069 298.585 22.6552C299.619 24.1034 300.137 25.7586 300.137 27.6207V69.3621C300.137 72.8793 298.326 75.7241 294.705 77.8966C291.188 79.9655 286.895 81 281.826 81H269.102C261.137 81 255.55 78.7759 252.343 74.3276C251.309 72.8793 250.792 71.2241 250.792 69.3621V27.6207ZM337.854 72.3103C341.992 72.3103 344.061 70.8621 344.061 67.9655V45.3103C344.061 42.4138 341.992 40.9655 337.854 40.9655H333.354C329.113 40.9655 326.992 42.4138 326.992 45.3103V67.9655C326.992 70.8621 329.113 72.3103 333.354 72.3103H337.854ZM312.095 43.9138C312.095 40.3966 313.854 37.6034 317.371 35.5345C320.992 33.3621 325.337 32.2759 330.406 32.2759H340.802C345.768 32.2759 349.957 33.3103 353.371 35.3793C357.095 37.4483 358.957 40.2931 358.957 43.9138V69.3621C358.957 72.9828 357.095 75.8276 353.371 77.8966C349.957 79.9655 345.768 81 340.802 81H330.406C322.44 81 316.854 78.7759 313.647 74.3276C312.613 72.8793 312.095 71.2241 312.095 69.3621V43.9138ZM396.793 26.2241C392.655 26.2241 390.586 27.6724 390.586 30.569V32.431H398.81V41.1207H390.586V81H375.534V41.1207H367.776V32.431H375.534V29.1724C375.534 25.6552 377.293 22.8621 380.81 20.7931C384.431 18.6207 388.776 17.5345 393.845 17.5345H406.103V26.2241H396.793ZM429.709 19.3966V28.0862H414.812V19.3966H429.709ZM414.812 32.431H429.709V81H414.812V32.431ZM467.317 72.3103C471.455 72.3103 473.524 70.8621 473.524 67.9655V64.5517H488.42V69.3621C488.42 72.9828 486.558 75.8276 482.834 77.8966C479.42 79.9655 475.231 81 470.265 81H459.869C451.903 81 446.317 78.7759 443.11 74.3276C442.076 72.8793 441.558 71.2241 441.558 69.3621V43.9138C441.558 40.3966 443.317 37.6034 446.834 35.5345C450.455 33.3621 454.8 32.2759 459.869 32.2759H470.265C475.231 32.2759 479.42 33.3103 482.834 35.3793C486.558 37.4483 488.42 40.2931 488.42 43.9138V48.8793H473.524V45.3103C473.524 42.4138 471.455 40.9655 467.317 40.9655H462.817C458.576 40.9655 456.455 42.4138 456.455 45.3103V67.9655C456.455 70.8621 458.576 72.3103 462.817 72.3103H467.317ZM516.325 19.3966V28.0862H501.428V19.3966H516.325ZM501.428 32.431H516.325V81H501.428V32.431ZM554.554 72.3103C558.692 72.3103 560.761 70.8621 560.761 67.9655V63.1552C560.554 60.3621 558.485 58.9655 554.554 58.9655H549.433C545.192 58.9655 543.071 60.4138 543.071 63.3103V67.9655C543.071 70.8621 545.192 72.3103 549.433 72.3103H554.554ZM550.054 41.1207C545.812 41.1207 543.692 42.569 543.692 45.4655V47.0172H528.795V43.9138C528.795 40.3966 530.554 37.6034 534.071 35.5345C537.692 33.4655 541.985 32.431 546.95 32.431H557.502C562.468 32.431 566.709 33.4655 570.226 35.5345C573.847 37.6034 575.657 40.3966 575.657 43.9138V81H560.761V79.6034C558.485 80.5345 555.95 81 553.157 81H546.485C538.519 81 532.933 78.7759 529.726 74.3276C528.692 72.8793 528.175 71.2759 528.175 69.5172V61.7586C528.175 58.3448 529.933 55.6034 533.45 53.5345C537.071 51.3621 541.416 50.2759 546.485 50.2759H553.933C556.726 50.2759 559.002 50.8448 560.761 51.9828V45.4655C560.761 42.569 558.692 41.1207 554.554 41.1207H550.054ZM588.083 81V18.7759H602.979V81H588.083Z" fill="#FEFEFF"/>
<path d="M127.989 99.5517H120.72V97.8713H127.989V91.2667H131.389V97.8713H139.087V99.5517H131.389V106.195H127.989V99.5517ZM150.618 99.1609C150.618 98.4314 150.084 98.0667 149.015 98.0667H146.71C144.678 98.0667 143.271 97.5195 142.489 96.4253C142.228 96.0605 142.098 95.6437 142.098 95.1747V92.5563C142.098 91.6705 142.541 90.9671 143.427 90.446C144.339 89.8989 145.433 89.6253 146.71 89.6253H149.758C151.035 89.6253 152.116 89.8858 153.002 90.4069C153.914 90.928 154.369 91.6444 154.369 92.5563V94.1586H150.618V92.908C150.618 92.1785 150.084 91.8138 149.015 91.8138H147.452C146.384 91.8138 145.85 92.1785 145.85 92.908V94.7839C145.85 95.5655 146.384 95.9303 147.452 95.8782H149.758C151.035 95.8782 152.116 96.1387 153.002 96.6598C153.914 97.1808 154.369 97.8973 154.369 98.8092V103.069C154.369 103.981 153.901 104.697 152.963 105.218C152.103 105.739 151.035 106 149.758 106H146.71C144.704 106 143.297 105.44 142.489 104.32C142.228 103.955 142.098 103.538 142.098 103.069V100.88H145.85V102.717C145.85 103.447 146.384 103.811 147.452 103.811H149.015C150.084 103.811 150.618 103.447 150.618 102.717V99.1609ZM162.526 95.9172C161.458 95.9172 160.924 96.282 160.924 97.0115V98.1448H165.223V97.0115C165.223 96.282 164.702 95.9172 163.66 95.9172H162.526ZM163.66 103.811C164.702 103.811 165.223 103.447 165.223 102.717V101.936H168.975V103.069C168.975 103.981 168.506 104.697 167.568 105.218C166.708 105.739 165.653 106 164.402 106H161.784C159.778 106 158.371 105.44 157.563 104.32C157.303 103.955 157.172 103.538 157.172 103.069V96.6598C157.172 95.7739 157.615 95.0705 158.501 94.5494C159.413 94.0023 160.507 93.7287 161.784 93.7287H164.402C165.653 93.7287 166.708 93.9893 167.568 94.5103C168.506 95.0314 168.975 95.7479 168.975 96.6598V100.333H160.924V102.717C160.924 103.447 161.458 103.811 162.526 103.811H163.66ZM178.459 103.811C179.501 103.811 180.022 103.473 180.022 102.795V97.0506C180.022 96.3211 179.501 95.9563 178.459 95.9563H177.169C176.101 95.9563 175.567 96.3211 175.567 97.0506V102.717C175.567 103.447 176.101 103.811 177.169 103.811H178.459ZM180.022 105.57C179.735 105.857 179.162 106 178.302 106H176.427C174.42 106 173.013 105.453 172.206 104.359C171.945 103.994 171.815 103.577 171.815 103.108V96.6598C171.815 95.8 172.258 95.1096 173.144 94.5885C174.056 94.0414 175.15 93.7678 176.427 93.7678H178.107C178.81 93.7678 179.449 93.872 180.022 94.0805V93.7287H183.774V107.798C183.774 108.631 183.305 109.335 182.367 109.908C181.507 110.429 180.452 110.69 179.201 110.69H176.544C175.371 110.69 174.316 110.429 173.378 109.908C172.44 109.387 171.971 108.684 171.971 107.798V107.055H175.723V107.407C175.723 108.136 176.257 108.501 177.325 108.501H178.459C179.501 108.501 180.022 108.136 180.022 107.407V105.57ZM190.508 102.717C190.508 103.447 191.042 103.811 192.11 103.811H193.087C193.661 103.811 194.117 103.707 194.455 103.499C195.002 103.108 195.276 102.717 195.276 102.326V93.7678H199.028V106H195.276V105.257C194.599 105.752 193.765 106 192.775 106H191.368C189.362 106 187.955 105.44 187.147 104.32C186.887 103.955 186.756 103.538 186.756 103.069V93.7678H190.508V102.717ZM205.682 94.7057C206.307 94.0805 207.245 93.7678 208.496 93.7678H209.16V95.9563H208.183C207.115 95.9563 206.359 96.282 205.916 96.9333C205.76 97.1418 205.682 97.3762 205.682 97.6368V106H201.93V93.7678H205.682V94.7057ZM217.572 103.811C218.614 103.811 219.135 103.447 219.135 102.717V101.506C219.083 100.802 218.562 100.451 217.572 100.451H216.282C215.214 100.451 214.68 100.815 214.68 101.545V102.717C214.68 103.447 215.214 103.811 216.282 103.811H217.572ZM216.439 95.9563C215.37 95.9563 214.836 96.3211 214.836 97.0506V97.4414H211.085V96.6598C211.085 95.7739 211.528 95.0705 212.413 94.5494C213.325 94.0284 214.406 93.7678 215.657 93.7678H218.315C219.565 93.7678 220.633 94.0284 221.519 94.5494C222.431 95.0705 222.887 95.7739 222.887 96.6598V106H219.135V105.648C218.562 105.883 217.924 106 217.22 106H215.54C213.534 106 212.127 105.44 211.319 104.32C211.059 103.955 210.928 103.551 210.928 103.108V101.154C210.928 100.294 211.371 99.6038 212.257 99.0828C213.169 98.5356 214.263 98.2621 215.54 98.2621H217.416C218.119 98.2621 218.692 98.4054 219.135 98.692V97.0506C219.135 96.3211 218.614 95.9563 217.572 95.9563H216.439ZM234.223 97.0506C234.223 96.3211 233.689 95.9563 232.621 95.9563H231.644C231.097 95.9563 230.589 96.0996 230.12 96.3862C229.677 96.6728 229.455 97.0245 229.455 97.4414V106H225.704V93.7678H229.455V94.5103C230.055 94.0153 230.901 93.7678 231.996 93.7678H233.363C234.64 93.7678 235.721 94.0284 236.607 94.5494C237.519 95.0705 237.975 95.7739 237.975 96.6598V106H234.223V97.0506ZM246.966 103.811C248.009 103.811 248.53 103.447 248.53 102.717V101.857H252.281V103.069C252.281 103.981 251.812 104.697 250.874 105.218C250.015 105.739 248.96 106 247.709 106H245.091C243.084 106 241.678 105.44 240.87 104.32C240.609 103.955 240.479 103.538 240.479 103.069V96.6598C240.479 95.7739 240.922 95.0705 241.808 94.5494C242.72 94.0023 243.814 93.7287 245.091 93.7287H247.709C248.96 93.7287 250.015 93.9893 250.874 94.5103C251.812 95.0314 252.281 95.7479 252.281 96.6598V97.9103H248.53V97.0115C248.53 96.282 248.009 95.9172 246.966 95.9172H245.833C244.765 95.9172 244.231 96.282 244.231 97.0115V102.717C244.231 103.447 244.765 103.811 245.833 103.811H246.966ZM261.732 103.811C262.774 103.811 263.295 103.447 263.295 102.717V101.506C263.243 100.802 262.722 100.451 261.732 100.451H260.442C259.374 100.451 258.84 100.815 258.84 101.545V102.717C258.84 103.447 259.374 103.811 260.442 103.811H261.732ZM260.599 95.9563C259.531 95.9563 258.997 96.3211 258.997 97.0506V97.4414H255.245V96.6598C255.245 95.7739 255.688 95.0705 256.574 94.5494C257.485 94.0284 258.567 93.7678 259.817 93.7678H262.475C263.725 93.7678 264.793 94.0284 265.679 94.5494C266.591 95.0705 267.047 95.7739 267.047 96.6598V106H263.295V105.648C262.722 105.883 262.084 106 261.38 106H259.7C257.694 106 256.287 105.44 255.479 104.32C255.219 103.955 255.088 103.551 255.088 103.108V101.154C255.088 100.294 255.531 99.6038 256.417 99.0828C257.329 98.5356 258.423 98.2621 259.7 98.2621H261.576C262.279 98.2621 262.852 98.4054 263.295 98.692V97.0506C263.295 96.3211 262.774 95.9563 261.732 95.9563H260.599ZM283.817 95.9172C282.749 95.9172 282.215 96.282 282.215 97.0115V98.1448H286.514V97.0115C286.514 96.282 285.993 95.9172 284.951 95.9172H283.817ZM284.951 103.811C285.993 103.811 286.514 103.447 286.514 102.717V101.936H290.266V103.069C290.266 103.981 289.797 104.697 288.859 105.218C287.999 105.739 286.944 106 285.693 106H283.075C281.069 106 279.662 105.44 278.854 104.32C278.594 103.955 278.463 103.538 278.463 103.069V96.6598C278.463 95.7739 278.906 95.0705 279.792 94.5494C280.704 94.0023 281.798 93.7287 283.075 93.7287H285.693C286.944 93.7287 287.999 93.9893 288.859 94.5103C289.797 95.0314 290.266 95.7479 290.266 96.6598V100.333H282.215V102.717C282.215 103.447 282.749 103.811 283.817 103.811H284.951ZM309.444 99.5517H302.175V97.8713H309.444V91.2667H312.844V97.8713H320.542V99.5517H312.844V106.195H309.444V99.5517ZM330.314 103.811C331.382 103.811 331.917 103.447 331.917 102.717V92.908C331.917 92.1785 331.382 91.8138 330.314 91.8138H327.305V103.811H330.314ZM331.096 89.6253C332.346 89.6253 333.415 89.8858 334.3 90.4069C335.212 90.928 335.668 91.6444 335.668 92.5563V103.069C335.668 103.981 335.199 104.697 334.261 105.218C333.402 105.739 332.346 106 331.096 106H323.553V89.6253H331.096ZM343.317 95.9172C342.249 95.9172 341.715 96.282 341.715 97.0115V98.1448H346.014V97.0115C346.014 96.282 345.493 95.9172 344.451 95.9172H343.317ZM344.451 103.811C345.493 103.811 346.014 103.447 346.014 102.717V101.936H349.766V103.069C349.766 103.981 349.297 104.697 348.359 105.218C347.499 105.739 346.444 106 345.193 106H342.575C340.569 106 339.162 105.44 338.354 104.32C338.094 103.955 337.963 103.538 337.963 103.069V96.6598C337.963 95.7739 338.406 95.0705 339.292 94.5494C340.204 94.0023 341.298 93.7287 342.575 93.7287H345.193C346.444 93.7287 347.499 93.9893 348.359 94.5103C349.297 95.0314 349.766 95.7479 349.766 96.6598V100.333H341.715V102.717C341.715 103.447 342.249 103.811 343.317 103.811H344.451ZM361.126 101.506C361.126 100.776 360.591 100.411 359.523 100.411H357.218C355.185 100.411 353.778 99.8644 352.997 98.7701C352.736 98.4054 352.606 97.9885 352.606 97.5195V96.6598C352.606 95.7739 353.049 95.0705 353.935 94.5494C354.847 94.0023 355.941 93.7287 357.218 93.7287H360.266C361.542 93.7287 362.611 93.9893 363.47 94.5103C364.408 95.0314 364.877 95.7479 364.877 96.6598V97.2069H361.126V97.0115C361.126 96.282 360.591 95.9172 359.523 95.9172H357.96C356.892 95.9172 356.358 96.282 356.358 97.0115V97.1287C356.358 97.9103 356.892 98.2751 357.96 98.223H360.266C361.542 98.223 362.624 98.4835 363.509 99.0046C364.421 99.5257 364.877 100.242 364.877 101.154V103.069C364.877 103.981 364.408 104.697 363.47 105.218C362.611 105.739 361.542 106 360.266 106H357.218C355.211 106 353.805 105.44 352.997 104.32C352.736 103.955 352.606 103.538 352.606 103.069V101.857H356.358V102.717C356.358 103.447 356.892 103.811 357.96 103.811H359.523C360.591 103.811 361.126 103.447 361.126 102.717V101.506ZM373.101 95.9172C372.032 95.9172 371.498 96.282 371.498 97.0115V98.1448H375.797V97.0115C375.797 96.282 375.276 95.9172 374.234 95.9172H373.101ZM374.234 103.811C375.276 103.811 375.797 103.447 375.797 102.717V101.936H379.549V103.069C379.549 103.981 379.08 104.697 378.142 105.218C377.282 105.739 376.227 106 374.977 106H372.358C370.352 106 368.945 105.44 368.137 104.32C367.877 103.955 367.747 103.538 367.747 103.069V96.6598C367.747 95.7739 368.19 95.0705 369.075 94.5494C369.987 94.0023 371.082 93.7287 372.358 93.7287H374.977C376.227 93.7287 377.282 93.9893 378.142 94.5103C379.08 95.0314 379.549 95.7479 379.549 96.6598V100.333H371.498V102.717C371.498 103.447 372.032 103.811 373.101 103.811H374.234ZM390.909 97.0506C390.909 96.3211 390.375 95.9563 389.306 95.9563H388.329C387.782 95.9563 387.274 96.0996 386.805 96.3862C386.362 96.6728 386.141 97.0245 386.141 97.4414V106H382.389V93.7678H386.141V94.5103C386.74 94.0153 387.587 93.7678 388.681 93.7678H390.049C391.326 93.7678 392.407 94.0284 393.293 94.5494C394.205 95.0705 394.661 95.7739 394.661 96.6598V106H390.909V97.0506ZM401.503 106L396.188 93.7287H399.939L403.378 101.623L406.778 93.7287H410.569L405.254 106H401.503ZM418.726 103.811C419.768 103.811 420.289 103.447 420.289 102.717V97.0115C420.289 96.282 419.768 95.9172 418.726 95.9172H417.593C416.525 95.9172 415.991 96.282 415.991 97.0115V102.717C415.991 103.447 416.525 103.811 417.593 103.811H418.726ZM412.239 96.6598C412.239 95.7739 412.682 95.0705 413.568 94.5494C414.479 94.0023 415.574 93.7287 416.85 93.7287H419.469C420.719 93.7287 421.774 93.9893 422.634 94.5103C423.572 95.0314 424.041 95.7479 424.041 96.6598V103.069C424.041 103.981 423.572 104.697 422.634 105.218C421.774 105.739 420.719 106 419.469 106H416.85C414.844 106 413.437 105.44 412.63 104.32C412.369 103.955 412.239 103.538 412.239 103.069V96.6598ZM427.161 106V90.3287H430.913V106H427.161ZM438.225 106L432.91 93.7287H436.662L440.101 101.623L443.501 93.7287H447.292L441.977 106H438.225ZM453.182 90.4851V92.6736H449.43V90.4851H453.182ZM449.43 93.7678H453.182V106H449.43V93.7678ZM464.373 97.0506C464.373 96.3211 463.852 95.9563 462.81 95.9563H462.107C461.56 95.9563 461.052 96.0996 460.583 96.3862C460.14 96.6728 459.918 97.0245 459.918 97.4414V106H456.167V93.7678H459.918V94.5103C460.778 94.0153 461.625 93.7678 462.459 93.7678H463.553C465.116 93.7678 466.341 94.1326 467.226 94.8621C468.242 94.1326 469.376 93.7678 470.626 93.7678H471.721C473.727 93.7678 475.134 94.328 475.941 95.4483C476.202 95.787 476.332 96.1908 476.332 96.6598V106H472.541V97.0506C472.541 96.3211 472.02 95.9563 470.978 95.9563H470.314C469.454 95.9563 468.803 96.2169 468.36 96.7379C468.229 96.8943 468.151 97.0636 468.125 97.246V106H464.373V97.0506ZM484.63 95.9172C483.562 95.9172 483.028 96.282 483.028 97.0115V98.1448H487.327V97.0115C487.327 96.282 486.805 95.9172 485.763 95.9172H484.63ZM485.763 103.811C486.805 103.811 487.327 103.447 487.327 102.717V101.936H491.078V103.069C491.078 103.981 490.609 104.697 489.671 105.218C488.812 105.739 487.756 106 486.506 106H483.887C481.881 106 480.474 105.44 479.667 104.32C479.406 103.955 479.276 103.538 479.276 103.069V96.6598C479.276 95.7739 479.719 95.0705 480.605 94.5494C481.517 94.0023 482.611 93.7287 483.887 93.7287H486.506C487.756 93.7287 488.812 93.9893 489.671 94.5103C490.609 95.0314 491.078 95.7479 491.078 96.6598V100.333H483.028V102.717C483.028 103.447 483.562 103.811 484.63 103.811H485.763ZM502.438 97.0506C502.438 96.3211 501.904 95.9563 500.836 95.9563H499.859C499.312 95.9563 498.804 96.0996 498.335 96.3862C497.892 96.6728 497.67 97.0245 497.67 97.4414V106H493.919V93.7678H497.67V94.5103C498.27 94.0153 499.116 93.7678 500.21 93.7678H501.578C502.855 93.7678 503.936 94.0284 504.822 94.5494C505.734 95.0705 506.19 95.7739 506.19 96.6598V106H502.438V97.0506ZM514.165 102.717C514.165 103.447 514.686 103.811 515.728 103.811H516.705V106H514.986C512.98 106 511.573 105.44 510.765 104.32C510.505 103.955 510.374 103.538 510.374 103.069V95.9563H508.108V93.7678H510.374V90.9931H514.165V93.7678H516.549V95.9563H514.165V102.717ZM525.175 103.811C526.218 103.811 526.739 103.447 526.739 102.717V97.0115C526.739 96.282 526.218 95.9172 525.175 95.9172H524.042C522.974 95.9172 522.44 96.282 522.44 97.0115V102.717C522.44 103.447 522.974 103.811 524.042 103.811H525.175ZM518.688 96.6598C518.688 95.7739 519.131 95.0705 520.017 94.5494C520.929 94.0023 522.023 93.7287 523.3 93.7287H525.918C527.169 93.7287 528.224 93.9893 529.083 94.5103C530.021 95.0314 530.49 95.7479 530.49 96.6598V103.069C530.49 103.981 530.021 104.697 529.083 105.218C528.224 105.739 527.169 106 525.918 106H523.3C521.293 106 519.887 105.44 519.079 104.32C518.818 103.955 518.688 103.538 518.688 103.069V96.6598ZM554.755 106L551.98 96.3471L549.205 106H545.453L540.764 89.6253H544.515L547.329 99.4345L550.104 89.6253H553.895L556.63 99.4345L559.444 89.6253H563.235L558.545 106H554.755ZM569.929 95.9172C568.861 95.9172 568.327 96.282 568.327 97.0115V98.1448H572.625V97.0115C572.625 96.282 572.104 95.9172 571.062 95.9172H569.929ZM571.062 103.811C572.104 103.811 572.625 103.447 572.625 102.717V101.936H576.377V103.069C576.377 103.981 575.908 104.697 574.97 105.218C574.11 105.739 573.055 106 571.805 106H569.186C567.18 106 565.773 105.44 564.966 104.32C564.705 103.955 564.575 103.538 564.575 103.069V96.6598C564.575 95.7739 565.018 95.0705 565.904 94.5494C566.815 94.0023 567.91 93.7287 569.186 93.7287H571.805C573.055 93.7287 574.11 93.9893 574.97 94.5103C575.908 95.0314 576.377 95.7479 576.377 96.6598V100.333H568.327V102.717C568.327 103.447 568.861 103.811 569.929 103.811H571.062ZM584.728 95.9563C583.712 95.9563 583.178 96.308 583.125 97.0115V102.717C583.125 103.447 583.66 103.811 584.728 103.811H586.291C587.359 103.811 587.893 103.447 587.893 102.717V97.0506C587.893 96.3211 587.359 95.9563 586.291 95.9563H584.728ZM591.645 103.108C591.645 103.994 591.176 104.697 590.238 105.218C589.378 105.739 588.31 106 587.033 106H585.04C584.337 106 583.699 105.883 583.125 105.648V106H579.374V90.0552H583.125V94.1977L583.477 94.0414C583.816 93.859 584.285 93.7678 584.884 93.7678H587.033C588.31 93.7678 589.391 94.0284 590.277 94.5494C591.189 95.0705 591.645 95.7739 591.645 96.6598V103.108Z" fill="#FEFEFF"/>
</svg>
